# xmcd
#
# Track frame offsets: 
#        150
#        10200
#        23628
#        34368
#        47700
#        58923
#        70185
#        81868
#        93218
#        104553
#        117093
#        130315
#        142288
#        156593
#        168700
#        178750
#        189585
#        201975
#
# Disc length: 2857 seconds
#
# Revision: 2
# Processed by: cddbd v1.5.1PL0 Copyright (c) Steve Scherf et al.
# Submitted via: ExactAudioCopy v0.95a5
#
DISCID=0e0b2712
DTITLE=Various Artist - Risqué Rhythm
DYEAR=1950
DGENRE=R&B
TTITLE0=Bull Moose Jackson - Big Ten-Inch Record
TTITLE1=Dinah Washington - Big Long Slidin' Thing
TTITLE2=The "5" Royales - Laundromat Blues
TTITLE3=Fluffy Hunter - The Walkin' Blues (Walk Right In, Walk Right O
TTITLE3=ut)
TTITLE4=Wynonie Harris - Wasn't That Good
TTITLE5=Roy Brown - Butcher Pete, Part 1
TTITLE6=The Swallows - It Ain't the Meat
TTITLE7=The Dominoes - Sixty Minute Man
TTITLE8=The Sultans - Lemmon Squeezing Daddy
TTITLE9=The Royals - Work With Me Annie
TTITLE10=Wynonie Harris - Keep on Churnin'
TTITLE11=Lucky Millinder - Silent George (feat. Myra Johnson)
TTITLE12=Dinah Washington - Long John Blues
TTITLE13=Eddie "Lockjaw" Davis - Mountain Oysters
TTITLE14=Julia Lee - My Man Stands Out
TTITLE15=The Bees - Toy Bell
TTITLE16=Todd Rhodes - Rocket 69 (feat. Connie Allen)
TTITLE17=The Toppers - (I Love to Play Your Piano) Let Me Bang Your Bo
TTITLE17=x
EXTD=
EXTT0=
EXTT1=
EXTT2=
EXTT3=
EXTT4=
EXTT5=
EXTT6=
EXTT7=
EXTT8=
EXTT9=
EXTT10=
EXTT11=
EXTT12=
EXTT13=
EXTT14=
EXTT15=
EXTT16=
EXTT17=
PLAYORDER=
